<?xml version="1.0" encoding="UTF-8"?>
<svg width="22px" height="22px" viewBox="0 0 22 22" version="1.1" xmlns="http://www.w3.org/2000/svg" xmlns:xlink="http://www.w3.org/1999/xlink">
    <!-- Generator: Sketch 52.5 (67469) - http://www.bohemiancoding.com/sketch -->
    <title>UI / Icon / Phone-2</title>
    <desc>Created with Sketch.</desc>
    <g id="UI-/-Icon-/-Phone-2" stroke="none" stroke-width="1" fill="none" fill-rule="evenodd">
        <g id="Icon">
            <rect id="Bounds" x="0" y="0" width="22" height="22"></rect>
            <rect id="Shape" stroke="#FF085C" fill-rule="nonzero" x="6.5" y="3.5" width="9" height="15" rx="1"></rect>
            <rect id="Shape" fill="#FF085C" fill-rule="nonzero" x="12.5" y="15" width="1" height="1" rx="0.5"></rect>
            <rect id="Shape" fill="#FF085C" fill-rule="nonzero" x="10.5" y="15" width="1" height="1" rx="0.5"></rect>
            <rect id="Shape" fill="#FF085C" fill-rule="nonzero" x="8.5" y="15" width="1" height="1" rx="0.5"></rect>
            <rect id="Shape" fill="#FF085C" fill-rule="nonzero" x="12.5" y="13" width="1" height="1" rx="0.5"></rect>
            <rect id="Shape" fill="#FF085C" fill-rule="nonzero" x="10.5" y="13" width="1" height="1" rx="0.5"></rect>
            <rect id="Shape" fill="#FF085C" fill-rule="nonzero" x="8.5" y="13" width="1" height="1" rx="0.5"></rect>
            <rect id="Shape" fill="#FF085C" fill-rule="nonzero" x="12.5" y="11" width="1" height="1" rx="0.5"></rect>
            <rect id="Shape" fill="#FF085C" fill-rule="nonzero" x="10.5" y="11" width="1" height="1" rx="0.5"></rect>
            <rect id="Shape" fill="#FF085C" fill-rule="nonzero" x="8.5" y="11" width="1" height="1" rx="0.5"></rect>
            <rect id="Shape" stroke="#FF085C" fill-rule="nonzero" x="9.5" y="5.5" width="3" height="1" rx="0.5"></rect>
        </g>
    </g>
</svg>